<?xml version="1.0" standalone="no"?>
<!DOCTYPE svg PUBLIC "-//W3C//DTD SVG 20010904//EN"
 "http://www.w3.org/TR/2001/REC-SVG-20010904/DTD/svg10.dtd">
<svg version="1.0" xmlns="http://www.w3.org/2000/svg"
 width="502.000000pt" height="502.000000pt" viewBox="0 0 502.000000 502.000000"
 preserveAspectRatio="xMidYMid meet">
<metadata>
Created by potrace 1.14, written by Peter Selinger 2001-2017
</metadata>
<g transform="translate(0.000000,502.000000) scale(0.100000,-0.100000)"
fill="#000000" stroke="none">
<path d="M2235 4875 c-277 -37 -510 -108 -770 -235 -446 -219 -856 -629 -1075
-1075 -175 -359 -250 -681 -250 -1080 0 -201 8 -289 46 -480 53 -267 179 -583
323 -805 124 -192 345 -438 526 -586 338 -276 800 -466 1253 -515 157 -16 513
-6 657 19 405 72 803 253 1115 506 98 79 270 252 347 346 254 315 433 710 505
1115 25 144 35 500 19 657 -37 340 -151 686 -323 974 -229 385 -602 732 -993
924 -263 129 -497 199 -785 236 -141 17 -457 17 -595 -1z"/>
</g>
</svg>
